<?xml version="1.0" standalone="no"?>
<svg xmlns:xlink="http://www.w3.org/1999/xlink" id="wave" style="transform:rotate(180deg); transition: 0.3s" viewBox="0 0 1440 100" version="1.1" xmlns="http://www.w3.org/2000/svg"><defs><linearGradient id="sw-gradient-0" x1="0" x2="0" y1="1" y2="0"><stop stop-color="rgba(255, 249, 234, 1)" offset="0%"/><stop stop-color="rgba(255, 249, 234, 1)" offset="100%"/></linearGradient></defs><path style="transform:translate(0, 0px); opacity:1" fill="url(#sw-gradient-0)" d="M0,10L60,18.3C120,27,240,43,360,56.7C480,70,600,80,720,78.3C840,77,960,63,1080,50C1200,37,1320,23,1440,30C1560,37,1680,63,1800,63.3C1920,63,2040,37,2160,33.3C2280,30,2400,50,2520,61.7C2640,73,2760,77,2880,73.3C3000,70,3120,60,3240,53.3C3360,47,3480,43,3600,35C3720,27,3840,13,3960,20C4080,27,4200,53,4320,68.3C4440,83,4560,87,4680,88.3C4800,90,4920,90,5040,78.3C5160,67,5280,43,5400,31.7C5520,20,5640,20,5760,28.3C5880,37,6000,53,6120,61.7C6240,70,6360,70,6480,71.7C6600,73,6720,77,6840,66.7C6960,57,7080,33,7200,25C7320,17,7440,23,7560,23.3C7680,23,7800,17,7920,11.7C8040,7,8160,3,8280,15C8400,27,8520,53,8580,66.7L8640,80L8640,100L8580,100C8520,100,8400,100,8280,100C8160,100,8040,100,7920,100C7800,100,7680,100,7560,100C7440,100,7320,100,7200,100C7080,100,6960,100,6840,100C6720,100,6600,100,6480,100C6360,100,6240,100,6120,100C6000,100,5880,100,5760,100C5640,100,5520,100,5400,100C5280,100,5160,100,5040,100C4920,100,4800,100,4680,100C4560,100,4440,100,4320,100C4200,100,4080,100,3960,100C3840,100,3720,100,3600,100C3480,100,3360,100,3240,100C3120,100,3000,100,2880,100C2760,100,2640,100,2520,100C2400,100,2280,100,2160,100C2040,100,1920,100,1800,100C1680,100,1560,100,1440,100C1320,100,1200,100,1080,100C960,100,840,100,720,100C600,100,480,100,360,100C240,100,120,100,60,100L0,100Z"/></svg>